<?xml version="1.0" encoding="UTF-8"?>
<svg version="1.1" xmlns="http://www.w3.org/2000/svg" width="85" height="80">
<path d="M0 0 C0.98484375 -0.00128906 1.9696875 -0.00257812 2.984375 -0.00390625 C4.02078125 -0.00003906 5.0571875 0.00382812 6.125 0.0078125 C7.67960937 0.00201172 7.67960937 0.00201172 9.265625 -0.00390625 C10.25046875 -0.00261719 11.2353125 -0.00132813 12.25 0 C13.16007812 0.00112793 14.07015625 0.00225586 15.0078125 0.00341797 C17.125 0.1328125 17.125 0.1328125 18.125 1.1328125 C18.2241657 2.75538794 18.25579777 4.38221081 18.2578125 6.0078125 C18.25974609 7.48507813 18.25974609 7.48507813 18.26171875 8.9921875 C18.25785156 10.02859375 18.25398438 11.065 18.25 12.1328125 C18.25580078 13.68742187 18.25580078 13.68742187 18.26171875 15.2734375 C18.26042969 16.25828125 18.25914063 17.243125 18.2578125 18.2578125 C18.25668457 19.16789062 18.25555664 20.07796875 18.25439453 21.015625 C18.125 23.1328125 18.125 23.1328125 17.125 24.1328125 C15.50242456 24.2319782 13.87560169 24.26361027 12.25 24.265625 C11.26515625 24.26691406 10.2803125 24.26820312 9.265625 24.26953125 C8.22921875 24.26566406 7.1928125 24.26179688 6.125 24.2578125 C4.57039063 24.26361328 4.57039063 24.26361328 2.984375 24.26953125 C1.99953125 24.26824219 1.0146875 24.26695313 0 24.265625 C-0.91007812 24.26449707 -1.82015625 24.26336914 -2.7578125 24.26220703 C-4.875 24.1328125 -4.875 24.1328125 -5.875 23.1328125 C-5.9741657 21.51023706 -6.00579777 19.88341419 -6.0078125 18.2578125 C-6.00910156 17.27296875 -6.01039062 16.288125 -6.01171875 15.2734375 C-6.00785156 14.23703125 -6.00398438 13.200625 -6 12.1328125 C-6.00580078 10.57820313 -6.00580078 10.57820313 -6.01171875 8.9921875 C-6.01042969 8.00734375 -6.00914063 7.0225 -6.0078125 6.0078125 C-6.00668457 5.09773438 -6.00555664 4.18765625 -6.00439453 3.25 C-5.75735363 -0.79214854 -3.51772145 0.00435978 0 0 Z " fill="#FFFFFF" transform="translate(33.875,27.8671875)"/>
<path d="M0 0 C0.9583374 0.00523682 1.9166748 0.01047363 2.90405273 0.01586914 C3.83548096 0.0183667 4.76690918 0.02086426 5.7265625 0.0234375 C7.51404907 0.03709351 7.51404907 0.03709351 9.33764648 0.05102539 C13.11202148 0.07165039 16.88639648 0.09227539 20.77514648 0.11352539 C20.77514648 7.70352539 20.77514648 15.29352539 20.77514648 23.11352539 C12.85514648 23.11352539 4.93514648 23.11352539 -3.22485352 23.11352539 C-3.24547852 19.50415039 -3.26610352 15.89477539 -3.28735352 12.17602539 C-3.29645752 11.03657471 -3.30556152 9.89712402 -3.31494141 8.72314453 C-3.31743896 7.83232178 -3.31993652 6.94149902 -3.32250977 6.02368164 C-3.32774658 5.10723877 -3.3329834 4.1907959 -3.33837891 3.24658203 C-3.18157127 0.30028463 -2.9484016 0.15044516 0 0 Z " fill="#FFFFFF" transform="translate(31.224853515625,56.886474609375)"/>
<path d="M0 0 C7.59 0 15.18 0 23 0 C23 7.92 23 15.84 23 24 C17.5859375 24.0309375 17.5859375 24.0309375 12.0625 24.0625 C10.92304932 24.071604 9.78359863 24.08070801 8.60961914 24.09008789 C7.71879639 24.09258545 6.82797363 24.09508301 5.91015625 24.09765625 C4.53549194 24.10551147 4.53549194 24.10551147 3.13305664 24.11352539 C1 24 1 24 0 23 C-0.08713831 21.29227642 -0.10700007 19.58101351 -0.09765625 17.87109375 C-0.09515869 16.93966553 -0.09266113 16.0082373 -0.09008789 15.04858398 C-0.08098389 13.85692627 -0.07187988 12.66526855 -0.0625 11.4375 C-0.041875 7.663125 -0.02125 3.88875 0 0 Z " fill="#FFFFFF" transform="translate(57,28)"/>
<path d="M0 0 C3.609375 -0.020625 7.21875 -0.04125 10.9375 -0.0625 C12.07695068 -0.071604 13.21640137 -0.08070801 14.39038086 -0.09008789 C15.28120361 -0.09258545 16.17202637 -0.09508301 17.08984375 -0.09765625 C18.46450806 -0.10551147 18.46450806 -0.10551147 19.86694336 -0.11352539 C22 0 22 0 23 1 C23.08713831 2.70772358 23.10700007 4.41898649 23.09765625 6.12890625 C23.09515869 7.06033447 23.09266113 7.9917627 23.09008789 8.95141602 C23.08098389 10.14307373 23.07187988 11.33473145 23.0625 12.5625 C23.041875 16.336875 23.02125 20.11125 23 24 C15.41 24 7.82 24 0 24 C0 16.08 0 8.16 0 0 Z " fill="#FFFFFF" transform="translate(0,28)"/>
<path d="M0 0 C7.92 0 15.84 0 24 0 C24.020625 3.609375 24.04125 7.21875 24.0625 10.9375 C24.071604 12.07695068 24.08070801 13.21640137 24.09008789 14.39038086 C24.09258545 15.28120361 24.09508301 16.17202637 24.09765625 17.08984375 C24.10551147 18.46450806 24.10551147 18.46450806 24.11352539 19.86694336 C24 22 24 22 23 23 C21.29227642 23.08713831 19.58101351 23.10700007 17.87109375 23.09765625 C16.93966553 23.09515869 16.0082373 23.09266113 15.04858398 23.09008789 C13.26109741 23.07643188 13.26109741 23.07643188 11.4375 23.0625 C7.663125 23.041875 3.88875 23.02125 0 23 C0 15.41 0 7.82 0 0 Z " fill="#FFFFFF" transform="translate(28,0)"/>
<path d="M0 0 C7.59 0 15.18 0 23 0 C23 7.59 23 15.18 23 23 C15.41 23 7.82 23 0 23 C0 15.41 0 7.82 0 0 Z " fill="#FFFFFF" transform="translate(57,57)"/>
<path d="M0 0 C7.59 0 15.18 0 23 0 C23 7.59 23 15.18 23 23 C15.41 23 7.82 23 0 23 C0 15.41 0 7.82 0 0 Z " fill="#FFFFFF" transform="translate(0,57)"/>
<path d="M0 0 C7.59 0 15.18 0 23 0 C23 7.59 23 15.18 23 23 C15.41 23 7.82 23 0 23 C0 15.41 0 7.82 0 0 Z " fill="#FFFFFF" transform="translate(57,0)"/>
<path d="M0 0 C7.59 0 15.18 0 23 0 C23 7.59 23 15.18 23 23 C15.41 23 7.82 23 0 23 C0 15.41 0 7.82 0 0 Z " fill="#FFFFFF" transform="translate(0,0)"/>
</svg>
