<svg width="25" height="25" viewBox="0 0 25 25" fill="none" xmlns="http://www.w3.org/2000/svg">
<path fill-rule="evenodd" clip-rule="evenodd" d="M18.9219 2.88022L19.1875 2.91355C19.8896 3.01042 20.8188 3.14063 21.3448 3.66772C21.776 4.09792 21.9417 4.79792 22.0406 5.42292L22.099 5.82501C22.2302 6.77292 22.2646 8.01459 22.0406 9.39375C21.599 12.1156 20.15 15.3635 16.5115 17.8781C16.4917 18.074 16.4906 18.2719 16.4948 18.4698L16.5052 18.7656C16.5219 19.2208 16.5385 19.676 16.4115 20.1177C16.2135 20.8052 15.5083 21.2583 14.849 21.5833L14.526 21.7365L14.1094 21.9198C13.3302 22.251 12.2781 22.5906 11.6188 21.9302C11.2229 21.5354 11.0604 20.9563 10.9281 20.3802L10.8792 20.1646C10.824 19.8923 10.7545 19.6232 10.6708 19.3583C10.6188 19.2063 10.5625 19.051 10.5021 18.8948C10.4356 18.9764 10.365 19.0547 10.2906 19.1292C9.93125 19.4885 9.3948 19.7396 8.95313 19.9156C8.47084 20.1063 7.925 20.2729 7.4198 20.4104L7.16042 20.4792L6.66355 20.6031L6.21355 20.7073L5.675 20.8219L5.33855 20.8875C5.17074 20.9186 4.9979 20.9084 4.83493 20.8577C4.67195 20.8071 4.52374 20.7176 4.40307 20.5969C4.2824 20.4763 4.19289 20.3281 4.14227 20.1651C4.09165 20.0021 4.08144 19.8293 4.1125 19.6615L4.20209 19.2125L4.3625 18.4854L4.49167 17.9542L4.58959 17.5792C4.72709 17.075 4.89375 16.5292 5.08542 16.0479C5.26042 15.6052 5.51146 15.0688 5.87084 14.7094L5.95417 14.6292L5.8875 14.6021C5.70948 14.5344 5.52916 14.4729 5.34688 14.4177L5.05834 14.3292C4.33542 14.1104 3.5625 13.875 3.0823 13.3938C2.49896 12.8115 2.69584 11.925 2.97709 11.1875L3.09167 10.9021L3.27605 10.4854L3.42917 10.1625C3.75417 9.50417 4.2073 8.79896 4.8948 8.60105C5.25938 8.49688 5.63855 8.49063 6.0198 8.50105L6.24896 8.50834C6.54688 8.51876 6.84375 8.53021 7.13438 8.50209C9.64896 4.86251 12.8969 3.41355 15.6188 2.97188C16.7107 2.79279 17.8217 2.76196 18.9219 2.88022ZM8.70105 16.0833C8.5371 15.962 8.34117 15.8914 8.1375 15.8803C7.93384 15.8692 7.73138 15.918 7.55521 16.0208L7.44063 16.0979L7.34375 16.1844L7.21355 16.349C6.94271 16.7406 6.78855 17.2823 6.66875 17.7885L6.55625 18.276L6.50313 18.4979L6.70209 18.45L7.13751 18.35C7.73959 18.2094 8.4073 18.0271 8.81771 17.6573C8.99616 17.4789 9.10381 17.2419 9.12067 16.9901C9.13753 16.7384 9.06245 16.4891 8.90938 16.2885L8.82396 16.1906L8.79896 16.1667L8.70105 16.0833ZM16.1833 8.81875C15.9899 8.62526 15.7603 8.47176 15.5075 8.36701C15.2548 8.26227 14.9839 8.20833 14.7103 8.20828C14.4367 8.20824 14.1657 8.26208 13.913 8.36673C13.6602 8.47139 13.4305 8.62481 13.237 8.81823C13.0435 9.01166 12.89 9.2413 12.7852 9.49405C12.6805 9.7468 12.6266 10.0177 12.6265 10.2913C12.6265 10.5649 12.6803 10.8358 12.785 11.0886C12.8896 11.3414 13.043 11.5711 13.2365 11.7646C13.6271 12.1554 14.157 12.375 14.7095 12.3751C15.2621 12.3752 15.792 12.1558 16.1828 11.7651C16.5736 11.3745 16.7932 10.8446 16.7933 10.292C16.7934 9.73949 16.574 9.20953 16.1833 8.81875Z" fill="white"/>
</svg>
